<svg xmlns="http://www.w3.org/2000/svg" viewBox="0 0 814 1000">
  <path d="M749 755c-12 28-18 40-34 64-22 34-54 76-93 76-35 0-44-23-92-23-48 0-60 22-93 23-37 1-65-37-88-71-48-69-85-196-36-282 26-45 73-74 123-74 32 0 61 16 81 16 19 0 55-20 94-17 16 1 61 7 90 54-2 1-53 31-52 90 0 72 63 96 63 96z" fill="#000"/>
  <path d="M561 231c-18 22-44 40-69 40-4 0-11-1-19-3-7-2-18-3-28-3-21 0-42 9-58 25-20 19-41 52-35 98 2 17 8 33 17 48 14 22 35 46 61 46 5 0 12-1 19-3 12-4 25-8 39-8 20 0 37 8 51 15 16 8 25 15 33 15 10 0 19-4 27-9 17-11 30-27 40-46-23-13-35-32-37-36-5-9-11-25-11-45 0-23 7-45 19-63 11-18 23-30 32-38 10-8 18-8 18-8-1-2-25-73-82-73-22 0-41 11-58 31z" fill="#000"/>
</svg>
