<svg xmlns="http://www.w3.org/2000/svg" viewBox="0 0 533.5 544.3">
  <path fill="#4285f4" d="M533.5 278.4a320.1 320.1 0 00-4.7-55H272v104h147.3a126 126 0 01-54.7 82.6v68h88.4c51.9-47.8 80.5-118.3 80.5-199.6z"/>
  <path fill="#34a853" d="M272 544.3c73.8 0 135.8-24.3 181.1-66.4l-88.4-68c-24.5 16.4-56 26-92.7 26-71 0-131.1-47.9-152.6-112.1h-91.2v70.4A272 272 0 00272 544.3z"/>
  <path fill="#fbbc04" d="M119.4 323.8a163 163 0 010-103.3V150H28.2a272 272 0 000 244.3l91.2-70.5z"/>
  <path fill="#ea4335" d="M272 107.7c39.9-.6 77.9 14 107.1 40l80-80A272 272 0 00272 0 272 272 0 0028.2 150l91.2 70.5c21.5-64.3 81.6-112.1 152.6-112.8z"/>
</svg>
